<svg id="Layer_1" enable-background="new 0 0 510.012 510.012" height="512" viewBox="0 0 510.012 510.012" width="512" xmlns="http://www.w3.org/2000/svg"><g><path d="m330.006 180h120v30h-120z"/><path d="m375.006 240h75v30h-75z"/><path d="m174.173 392.12-19.394-19.393-21.213 21.213 40.607 40.606 82.273-82.273-21.213-21.213z"/><path d="m465.006 0h-420c-24.813 0-45 20.187-45 45v240c0 24.814 20.187 45 45 45h22.722c-31.743 85.725 35.603 181.306 127.28 179.999 91.658 1.312 159.037-94.287 127.277-179.999h142.722c24.813 0 45-20.186 45-45 0-3.793 0-233.35 0-240-.001-24.813-20.188-45-45.001-45zm-435 90h450v30h-450v-30zm165 390c-57.897 0-105-47.103-105-105 0-60.844 51.707-108.856 112.14-104.752 133.968 13.89 127.724 204.888-7.14 209.752zm285-195c0 8.272-6.729 15-15 15h-157.741c-44.838-66.943-138.611-80.587-200.588-27.014-9.062 7.825-17.142 16.879-23.93 27.014h-37.741c-8.271 0-15-6.728-15-15v-135h450zm-450-225v-15c0-8.271 6.729-15 15-15h420c8.271 0 15 6.729 15 15v15z"/></g></svg>