<?xml version="1.0"?>
<svg xmlns="http://www.w3.org/2000/svg" xmlns:xlink="http://www.w3.org/1999/xlink" xmlns:svgjs="http://svgjs.com/svgjs" version="1.1" width="512" height="512" x="0" y="0" viewBox="0 0 512 512" style="enable-background:new 0 0 512 512" xml:space="preserve" class=""><g><g xmlns="http://www.w3.org/2000/svg"><path d="m457.886 85.333h-391.284c-36.783 0-66.602 29.819-66.602 66.602v101.984h478.699v-147.773c0-11.494-9.318-20.813-20.813-20.813z" fill="#27509e" data-original="#2b4d66" style="" class=""/><path d="m478.699 235.187v-29.138c0-11.495-9.318-20.813-20.813-20.813h-391.284c-18.392 0-33.301-14.909-33.301-33.301v-57.669c-19.902 11.517-33.301 33.021-33.301 57.669v83.252z" fill="#223d67" data-original="#81a7c6" style="" class=""/><path d="m66.602 0c-18.175 0-32.949 14.56-33.295 32.651-.357 18.669 15.28 33.95 33.952 33.95h364.61l13.528 10.302v-66.601c0-5.69-4.612-10.302-10.302-10.302z" fill="#d8f1a0" data-original="#d8f1a0" style="" class=""/><path d="m445.398 41.027h-378.796c-4.267 0-7.726-3.459-7.726-7.726s3.459-7.726 7.726-7.726h378.797v15.452z" fill="#b3e59f" data-original="#b3e59f" style="" class=""/><path d="m33.301 33.301v118.634c0 18.392 14.909 33.301 33.301 33.301h378.797v-108.333c0-5.69-4.612-10.302-10.302-10.302h-368.495c-18.392.001-33.301-14.909-33.301-33.3z" fill="#b3e59f" data-original="#b3e59f" style="" class=""/><path d="m418.341 185.236h27.057v-108.333c0-5.69-4.612-10.302-10.302-10.302h-16.755z" fill="#95d6a4" data-original="#95d6a4" style="" class=""/><path d="m0 151.935c0 36.787 29.815 66.602 66.602 66.602h391.285c11.495 0 20.813 9.318 20.813 20.813v251.837c0 11.495-9.318 20.813-20.813 20.813h-391.285c-36.783 0-66.602-29.819-66.602-66.602z" fill="#27509e" data-original="#407093" style="" class=""/><path d="m457.886 218.537h-31.22c11.495 0 20.813 9.318 20.813 20.813v37.463c0 5.747-4.659 10.406-10.406 10.406h-7.343c-42.396 0-77.575 33.854-77.986 76.248-.415 42.809 34.289 77.768 77.004 77.768h8.325c5.747 0 10.406 4.659 10.406 10.406v39.545c0 11.495-9.318 20.813-20.813 20.813h31.22c11.495 0 20.813-9.318 20.813-20.813v-251.836c0-11.495-9.318-20.813-20.813-20.813z" fill="#223d67" data-original="#365e7d" style="" class=""/><path d="m491.187 414.179h-62.439c-27.587 0-49.951-22.364-49.951-49.951 0-27.587 22.364-49.951 49.951-49.951h62.439c11.495 0 20.813 9.318 20.813 20.813v58.276c0 11.495-9.318 20.813-20.813 20.813z" fill="#27509e" data-original="#2b4d66" style="" class=""/><circle cx="428.748" cy="364.228" fill="#ffe07d" r="16.65" data-original="#ffe07d" style="" class=""/><path d="m383.768 185.236v-26.071c-26.783-3.474-48.062-24.753-51.536-51.536h-238.574c-4.267 0-7.726-3.459-7.726-7.726s3.459-7.726 7.726-7.726h245.803c4.267 0 7.726 3.459 7.726 7.726 0 24.431 19.876 44.306 44.306 44.306 4.267 0 7.726 3.459 7.726 7.726v33.301z" fill="#95d6a4" data-original="#95d6a4" style="" class=""/></g></g></svg>
